<?xml version="1.0" encoding="UTF-8"?>
<svg id="Capa_1" data-name="Capa 1" xmlns="http://www.w3.org/2000/svg" viewBox="0 0 20.39 29.48" width="20.39" height="29.48">
  <defs>
    <style>
      .cls-1 {
        fill: #1c345c;
      }

      .cls-2 {
        fill: #b11c44;
      }
    </style>
  </defs>
  <path class="cls-1" d="M12.89,11.13c-.08-.45-.59-1-1-1.19-.22-.1-1.57-.34-1.32-.67,3.22-.76,4.86-3.99,7.48-5.72.66-.44,1.5-1.02,2.3-.98.07.34-.09.22-.25.32-1.6.96-2.78,1.81-3.19,3.77-.01,5.52-.54,11.6-.17,17.09.21,3.09,1.94,1.14,3.42.96.33-.04.22.64.13.78-.08.12-1.69.53-2.03.67-2.06.81-3.59,2.06-5.37,3.32V11.13Z"/>
  <path class="cls-2" d="M7.35,29.48c-2.1-1.87-4.57-3.33-7.34-3.94v-.83c1.51.23,3.42,1.87,3.62-.7-.26-5.19.33-10.69,0-15.84-.19-2.96-.93-3.82-3.35-5.27-.16-.1-.33.03-.25-.32,1.14.05,2.24.76,3.09,1.48,2.14,1.8,3.78,4.58,6.69,5.22.26.35-.88.52-1.03.58-.58.25-.94.38-1.19,1-.04.1-.23.76-.23.8v17.83Z"/>
  <polygon class="cls-1" points="16.62 1.29 15.61 2.14 15.98 3.48 14.86 2.73 13.79 3.35 14.03 2.15 13.02 1.35 14.41 1.27 14.88 0 15.33 1.23 16.62 1.29"/>
  <polygon class="cls-1" points="11.98 3.61 10.96 4.45 11.33 5.79 10.22 5.04 9.15 5.66 9.39 4.47 8.37 3.67 9.77 3.59 10.24 2.32 10.68 3.55 11.98 3.61"/>
  <polygon class="cls-2" points="5.96 1.27 7.35 1.29 6.21 2.08 6.58 3.35 5.49 2.7 4.39 3.48 4.77 2.08 3.62 1.29 5.02 1.27 5.49 0 5.96 1.27"/>
  <polygon class="cls-2" points="10.23 5.04 9.16 5.66 9.4 4.47 8.38 3.67 9.78 3.59 10.25 2.32 10.23 5.04"/>
</svg>